<svg  viewBox="0 0 1440 1024" fill="none" xmlns="http://www.w3.org/2000/svg">
<path d="M134 490L309.797 806L404 562.331L361.052 490H134Z" fill="url(#paint0_linear)"/>
<path d="M134 490L309.797 806L404 562.331L361.052 490H134Z" stroke="black" stroke-width="5" stroke-linecap="round" stroke-linejoin="round"/>
<path d="M134 490L309.797 806L404 562.331L361.052 490H134Z" stroke="black" stroke-opacity="0.2" stroke-width="5" stroke-linecap="round" stroke-linejoin="round"/>
<path d="M504 264L700.743 791L817 484.112L716.081 264H504Z" fill="url(#paint1_linear)" stroke="black" stroke-width="5" stroke-linecap="round" stroke-linejoin="round"/>
<path d="M897 259L1091.63 774L1209 479.492L1108.4 259H897Z" fill="url(#paint2_linear)" stroke="black" stroke-width="5" stroke-linecap="round" stroke-linejoin="round"/>
<circle cx="1319.5" cy="337.5" r="87" fill="url(#paint3_radial)" stroke="black" stroke-width="5"/>
<path d="M1107 257H888.181L839.225 379.824L780.626 546.209L702 794H936.396L1038.02 509.79L1107 257Z" fill="url(#paint4_linear)" stroke="black" stroke-width="5" stroke-linecap="round" stroke-linejoin="round"/>
<path d="M717 266H498.181L449.225 389.511L390.626 556.824L312 806H546.396L648.016 520.202L717 266Z" fill="url(#paint5_linear)" stroke="#181717" stroke-width="5" stroke-linecap="round" stroke-linejoin="round"/>
<path d="M1093 776H1328.08L1417.35 485.49L1430 436.83H1328.08L1201.24 434L1171.86 519.961L1093 776Z" fill="url(#paint6_linear)" stroke="black" stroke-width="5" stroke-linecap="round" stroke-linejoin="round"/>
<defs>
<linearGradient id="paint0_linear" x1="263.266" y1="350.456" x2="263.266" y2="827.545" gradientUnits="userSpaceOnUse">
<stop stop-color="#E5E5E5"/>
<stop offset="0.0708332" stop-color="#989696"/>
<stop offset="0.14375" stop-color="#6A6666"/>
<stop offset="0.258333" stop-color="#352F2F"/>
<stop offset="0.732292" stop-color="#352F2F"/>
<stop offset="0.826042" stop-color="#716E6E"/>
<stop offset="0.925" stop-color="#C4C4C4"/>
</linearGradient>
<linearGradient id="paint1_linear" x1="646.87" y1="264" x2="646.87" y2="808.185" gradientUnits="userSpaceOnUse">
<stop stop-color="#E5E5E5"/>
<stop offset="0.128125" stop-color="#989696"/>
<stop offset="0.227083" stop-color="#6A6666"/>
<stop offset="0.45625" stop-color="#352F2F"/>
<stop offset="0.695833" stop-color="#352F2F"/>
<stop offset="0.815625" stop-color="#716E6E"/>
<stop offset="0.966667" stop-color="#C4C4C4"/>
</linearGradient>
<linearGradient id="paint2_linear" x1="1039.41" y1="259" x2="1039.41" y2="804.125" gradientUnits="userSpaceOnUse">
<stop stop-color="#E5E5E5"/>
<stop offset="0.128125" stop-color="#989696"/>
<stop offset="0.227083" stop-color="#6A6666"/>
<stop offset="0.45625" stop-color="#352F2F"/>
<stop offset="0.695833" stop-color="#352F2F"/>
<stop offset="0.815625" stop-color="#716E6E"/>
<stop offset="0.966667" stop-color="#C4C4C4"/>
</linearGradient>
<radialGradient id="paint3_radial" cx="0" cy="0" r="1" gradientUnits="userSpaceOnUse" gradientTransform="translate(1344.59 305.072) rotate(101.627) scale(124.482 124.052)">
<stop stop-color="white"/>
<stop offset="0.195833" stop-color="#C4C4C4"/>
<stop offset="0.320833" stop-color="#989696"/>
<stop offset="0.466667" stop-color="#6A6666"/>
<stop offset="0.716667" stop-color="#463F3F"/>
<stop offset="1" stop-color="#352F2F"/>
</radialGradient>
<linearGradient id="paint4_linear" x1="904.5" y1="257" x2="904.5" y2="794" gradientUnits="userSpaceOnUse">
<stop stop-color="#352F2F"/>
<stop offset="0.185417" stop-color="#A09E9E" stop-opacity="0.902985"/>
<stop offset="0.305208" stop-color="#C4C4C4"/>
<stop offset="0.445833" stop-color="#E5E5E5"/>
<stop offset="0.836458" stop-color="#352F2F"/>
</linearGradient>
<linearGradient id="paint5_linear" x1="514.5" y1="266" x2="514.5" y2="806" gradientUnits="userSpaceOnUse">
<stop stop-color="#352F2F"/>
<stop offset="0.185417" stop-color="#A09E9E" stop-opacity="0.902985"/>
<stop offset="0.305208" stop-color="#C4C4C4"/>
<stop offset="0.445833" stop-color="#E5E5E5"/>
<stop offset="0.836458" stop-color="#352F2F"/>
</linearGradient>
<linearGradient id="paint6_linear" x1="1296.09" y1="221.126" x2="1296.09" y2="776" gradientUnits="userSpaceOnUse">
<stop stop-color="#352F2F"/>
<stop offset="0.185417" stop-color="#A09E9E" stop-opacity="0.902985"/>
<stop offset="0.305208" stop-color="#C4C4C4"/>
<stop offset="0.445833" stop-color="#E5E5E5"/>
<stop offset="0.836458" stop-color="#352F2F"/>
</linearGradient>
</defs>
</svg>
